<svg xmlns="http://www.w3.org/2000/svg" xmlns:xlink="http://www.w3.org/1999/xlink" id="processonSvg1000" viewBox="48.59999084472656 9.400001525878906 1167.0 517.1999969482422" width="1167.0" height="517.1999969482422"><defs id="ProcessOnDefs1001"><marker id="ProcessOnMarker1050" markerUnits="userSpaceOnUse" orient="auto" markerWidth="16.23606797749979" markerHeight="10.550836550532098" viewBox="-1.0 -1.3763819204711736 16.23606797749979 10.550836550532098" refX="-1.0" refY="3.8990363547948754"><path id="ProcessOnPath1051" d="M12.0 3.8990363547948754L0.0 7.798072709589751V0.0Z" stroke="#323232" stroke-width="2.0" fill="#323232" transform="matrix(1.0,0.0,0.0,1.0,0.0,0.0)"/></marker><marker id="ProcessOnMarker1077" markerUnits="userSpaceOnUse" orient="auto" markerWidth="16.23606797749979" markerHeight="10.550836550532098" viewBox="-1.0 -1.3763819204711736 16.23606797749979 10.550836550532098" refX="-1.0" refY="3.8990363547948754"><path id="ProcessOnPath1078" d="M12.0 3.8990363547948754L0.0 7.798072709589751V0.0Z" stroke="#323232" stroke-width="2.0" fill="#323232" transform="matrix(1.0,0.0,0.0,1.0,0.0,0.0)"/></marker><marker id="ProcessOnMarker1081" markerUnits="userSpaceOnUse" orient="auto" markerWidth="14.289086868996552" markerHeight="19.055054660878554" viewBox="-0.5877852522924731 -0.8090169943749475 14.289086868996552 19.055054660878554" refX="1.1135163644116066" refY="8.71851033606433"><path id="ProcessOnPath1082" d="M0 0L12.0 8.71851033606433L0 17.43702067212866" stroke="#323232" stroke-width="2.0" fill="none" transform="matrix(-1.0,1.2246467991473532E-16,-1.2246467991473532E-16,-1.0,13.113516364411606,17.43702067212866)"/></marker><marker id="ProcessOnMarker1088" markerUnits="userSpaceOnUse" orient="auto" markerWidth="14.289086868996552" markerHeight="19.055054660878554" viewBox="-0.5877852522924731 -0.8090169943749475 14.289086868996552 19.055054660878554" refX="12.0" refY="8.71851033606433"><path id="ProcessOnPath1089" d="M0 0L12.0 8.71851033606433L0 17.43702067212866" stroke="#323232" stroke-width="2.0" fill="none" transform="matrix(1.0,0.0,0.0,1.0,0.0,0.0)"/></marker><marker id="ProcessOnMarker1092" markerUnits="userSpaceOnUse" orient="auto" markerWidth="14.289086868996552" markerHeight="19.055054660878554" viewBox="-0.5877852522924731 -0.8090169943749475 14.289086868996552 19.055054660878554" refX="12.0" refY="8.71851033606433"><path id="ProcessOnPath1093" d="M0 0L12.0 8.71851033606433L0 17.43702067212866" stroke="#323232" stroke-width="2.0" fill="none" transform="matrix(1.0,0.0,0.0,1.0,0.0,0.0)"/></marker></defs><g id="ProcessOnG1002"><path id="ProcessOnPath1003" d="M48.59999084472656 9.400001525878906H1215.5999908447266V526.5999984741211H48.59999084472656V9.400001525878906Z" fill="none"/><g id="ProcessOnG1004"><g id="ProcessOnG1005" transform="matrix(1.0,0.0,0.0,1.0,68.59999084472656,86.5999984741211)" opacity="1.0"><path id="ProcessOnPath1006" d="M0.0 4.0Q0.0 0.0 4.0 0.0L240.0 0.0Q244.0 0.0 244.0 4.0L244.0 60.0Q244.0 64.0 240.0 64.0L4.0 64.0Q0.0 64.0 0.0 60.0Z" stroke="#323232" stroke-width="2.0" stroke-dasharray="none" opacity="1.0" fill="#ffffff"/><path id="ProcessOnPath1007" d="M0.0 32.0L244.0 32.0" stroke="#323232" stroke-width="2.0" stroke-dasharray="none" opacity="1.0" fill="none"/><path id="ProcessOnPath1008" d="M0.0 0.0L244.0 0.0L244.0 64.0L0.0 64.0Z" stroke="none" stroke-width="0.0" stroke-dasharray="none" opacity="1.0" fill="none"/><g id="ProcessOnG1009" transform="matrix(1.0,0.0,0.0,1.0,10.0,-0.25)"><text id="ProcessOnText1010" fill="#000000" font-size="13" x="111.0" y="13.325" font-family="微软雅黑" font-weight="bold" font-style="normal" text-decoration="none" family="微软雅黑" text-anchor="middle" size="13">&lt;interface&gt;</text><text id="ProcessOnText1011" fill="#000000" font-size="13" x="111.0" y="29.575" font-family="微软雅黑" font-weight="bold" font-style="normal" text-decoration="none" family="微软雅黑" text-anchor="middle" size="13">Oberserver</text></g><g id="ProcessOnG1012" transform="matrix(1.0,0.0,0.0,1.0,10.0,31.75)"><text id="ProcessOnText1013" fill="#000000" font-size="13" x="111.0" y="13.325" font-family="微软雅黑" font-weight="bold" font-style="normal" text-decoration="none" family="微软雅黑" text-anchor="middle" size="13">+ update(Observable, Object):void</text><text id="ProcessOnText1014" fill="#000000" font-size="13" x="111.0" y="29.575" font-family="微软雅黑" font-weight="bold" font-style="normal" text-decoration="none" family="微软雅黑" text-anchor="middle" size="13"></text></g></g><g id="ProcessOnG1015" transform="matrix(1.0,0.0,0.0,1.0,465.59999084472656,29.400001525878906)" opacity="1.0"><path id="ProcessOnPath1016" d="M0.0 4.0Q0.0 0.0 4.0 0.0L425.0 0.0Q429.0 0.0 429.0 4.0L429.0 210.1999969482422Q429.0 214.1999969482422 425.0 214.1999969482422L4.0 214.1999969482422Q0.0 214.1999969482422 0.0 210.1999969482422Z" stroke="#323232" stroke-width="2.0" stroke-dasharray="none" opacity="1.0" fill="#ffffff"/><path id="ProcessOnPath1017" d="M0.0 30.0L429.0 30.0M0.0 62.0L429.0 62.0" stroke="#323232" stroke-width="2.0" stroke-dasharray="none" opacity="1.0" fill="none"/><path id="ProcessOnPath1018" d="M0.0 0.0L429.0 0.0L429.0 214.1999969482422L0.0 214.1999969482422Z" stroke="none" stroke-width="0.0" stroke-dasharray="none" opacity="1.0" fill="none"/><g id="ProcessOnG1019" transform="matrix(1.0,0.0,0.0,1.0,10.0,6.875)"><text id="ProcessOnText1020" fill="#000000" font-size="13" x="203.5" y="13.325" font-family="微软雅黑" font-weight="bold" font-style="normal" text-decoration="none" family="微软雅黑" text-anchor="middle" size="13">Observable</text></g><g id="ProcessOnG1021" transform="matrix(1.0,0.0,0.0,1.0,10.0,29.75)"><text id="ProcessOnText1022" fill="#000000" font-size="13" x="203.5" y="13.325" font-family="微软雅黑" font-weight="bold" font-style="normal" text-decoration="none" family="微软雅黑" text-anchor="middle" size="13">- boolean changed = false</text><text id="ProcessOnText1023" fill="#000000" font-size="13" x="203.5" y="29.575" font-family="微软雅黑" font-weight="bold" font-style="normal" text-decoration="none" family="微软雅黑" text-anchor="middle" size="13">- Vector observers</text></g><g id="ProcessOnG1024" transform="matrix(1.0,0.0,0.0,1.0,10.0,60.875)"><text id="ProcessOnText1025" fill="#000000" font-size="13" x="203.5" y="13.325" font-family="微软雅黑" font-weight="bold" font-style="normal" text-decoration="none" family="微软雅黑" text-anchor="middle" size="13">+ addObserver(Observer o)</text><text id="ProcessOnText1026" fill="#000000" font-size="13" x="203.5" y="29.575" font-family="微软雅黑" font-weight="bold" font-style="normal" text-decoration="none" family="微软雅黑" text-anchor="middle" size="13">+ deleteObserver(Observer o)</text><text id="ProcessOnText1027" fill="#000000" font-size="13" x="203.5" y="45.825" font-family="微软雅黑" font-weight="bold" font-style="normal" text-decoration="none" family="微软雅黑" text-anchor="middle" size="13">+ deletedObservers()</text><text id="ProcessOnText1028" fill="#000000" font-size="13" x="203.5" y="62.075" font-family="微软雅黑" font-weight="bold" font-style="normal" text-decoration="none" family="微软雅黑" text-anchor="middle" size="13">+ notifyObservers(Object arg)</text><text id="ProcessOnText1029" fill="#000000" font-size="13" x="203.5" y="78.325" font-family="微软雅黑" font-weight="bold" font-style="normal" text-decoration="none" family="微软雅黑" text-anchor="middle" size="13">+ notifyObservers()</text><text id="ProcessOnText1030" fill="#000000" font-size="13" x="203.5" y="94.575" font-family="微软雅黑" font-weight="bold" font-style="normal" text-decoration="none" family="微软雅黑" text-anchor="middle" size="13">+ setChanged()</text><text id="ProcessOnText1031" fill="#000000" font-size="13" x="203.5" y="110.825" font-family="微软雅黑" font-weight="bold" font-style="normal" text-decoration="none" family="微软雅黑" text-anchor="middle" size="13">+ clearChanged()</text><text id="ProcessOnText1032" fill="#000000" font-size="13" x="203.5" y="127.075" font-family="微软雅黑" font-weight="bold" font-style="normal" text-decoration="none" family="微软雅黑" text-anchor="middle" size="13">+ hasChanged()</text><text id="ProcessOnText1033" fill="#000000" font-size="13" x="203.5" y="143.325" font-family="微软雅黑" font-weight="bold" font-style="normal" text-decoration="none" family="微软雅黑" text-anchor="middle" size="13">+ int countObservers()</text></g></g><g id="ProcessOnG1034" transform="matrix(1.0,0.0,0.0,1.0,75.59999084472656,209.5999984741211)" opacity="1.0"><path id="ProcessOnPath1035" d="M0.0 4.0Q0.0 0.0 4.0 0.0L304.0 0.0Q308.0 0.0 308.0 4.0L308.0 136.0Q308.0 140.0 304.0 140.0L4.0 140.0Q0.0 140.0 0.0 136.0Z" stroke="#323232" stroke-width="2.0" stroke-dasharray="none" opacity="1.0" fill="#ffffff"/><path id="ProcessOnPath1036" d="M0.0 30.0L308.0 30.0M0.0 60.0L308.0 60.0" stroke="#323232" stroke-width="2.0" stroke-dasharray="none" opacity="1.0" fill="none"/><path id="ProcessOnPath1037" d="M0.0 0.0L308.0 0.0L308.0 140.0L0.0 140.0Z" stroke="none" stroke-width="0.0" stroke-dasharray="none" opacity="1.0" fill="none"/><g id="ProcessOnG1038" transform="matrix(1.0,0.0,0.0,1.0,10.0,6.875)"><text id="ProcessOnText1039" fill="#000000" font-size="13" x="143.0" y="13.325" font-family="微软雅黑" font-weight="bold" font-style="normal" text-decoration="none" family="微软雅黑" text-anchor="middle" size="13">Reader</text></g><g id="ProcessOnG1040" transform="matrix(1.0,0.0,0.0,1.0,10.0,36.875)"><text id="ProcessOnText1041" fill="#000000" font-size="13" x="143.0" y="13.325" font-family="微软雅黑" font-weight="bold" font-style="normal" text-decoration="none" family="微软雅黑" text-anchor="middle" size="13">- String name</text></g><g id="ProcessOnG1042" transform="matrix(1.0,0.0,0.0,1.0,10.0,59.375)"><text id="ProcessOnText1043" fill="#000000" font-size="13" x="143.0" y="13.325" font-family="微软雅黑" font-weight="bold" font-style="normal" text-decoration="none" family="微软雅黑" text-anchor="middle" size="13">+ void update(Observable o, Object arg)</text><text id="ProcessOnText1044" fill="#000000" font-size="13" x="143.0" y="29.575" font-family="微软雅黑" font-weight="bold" font-style="normal" text-decoration="none" family="微软雅黑" text-anchor="middle" size="13"></text><text id="ProcessOnText1045" fill="#000000" font-size="13" x="143.0" y="45.825" font-family="微软雅黑" font-weight="bold" font-style="normal" text-decoration="none" family="微软雅黑" text-anchor="middle" size="13">+ void subscribe(String writerName)</text><text id="ProcessOnText1046" fill="#000000" font-size="13" x="143.0" y="62.075" font-family="微软雅黑" font-weight="bold" font-style="normal" text-decoration="none" family="微软雅黑" text-anchor="middle" size="13">+ void unSub(String writerName)</text><text id="ProcessOnText1047" fill="#000000" font-size="13" x="143.0" y="78.325" font-family="微软雅黑" font-weight="bold" font-style="normal" text-decoration="none" family="微软雅黑" text-anchor="middle" size="13"></text></g></g><g id="ProcessOnG1048"><path id="ProcessOnPath1049" d="M191.59999084472656 207.5999984741211L191.59999084472656 179.0999984741211L190.59999084472656 179.0999984741211L190.59999084472656 165.8360664516209" stroke="#323232" stroke-width="2.0" stroke-dasharray="none" fill="none" marker-end="url(#ProcessOnMarker1050)"/></g><g id="ProcessOnG1052" transform="matrix(1.0,0.0,0.0,1.0,547.5999908447266,314.5999984741211)" opacity="1.0"><path id="ProcessOnPath1053" d="M0.0 4.0Q0.0 0.0 4.0 0.0L226.0 0.0Q230.0 0.0 230.0 4.0L230.0 88.0Q230.0 92.0 226.0 92.0L4.0 92.0Q0.0 92.0 0.0 88.0Z" stroke="#323232" stroke-width="2.0" stroke-dasharray="none" opacity="1.0" fill="#ffffff"/><path id="ProcessOnPath1054" d="M0.0 30.0L230.0 30.0M0.0 62.0L230.0 62.0" stroke="#323232" stroke-width="2.0" stroke-dasharray="none" opacity="1.0" fill="none"/><path id="ProcessOnPath1055" d="M0.0 0.0L230.0 0.0L230.0 92.0L0.0 92.0Z" stroke="none" stroke-width="0.0" stroke-dasharray="none" opacity="1.0" fill="none"/><g id="ProcessOnG1056" transform="matrix(1.0,0.0,0.0,1.0,10.0,6.875)"><text id="ProcessOnText1057" fill="#000000" font-size="13" x="104.0" y="13.325" font-family="微软雅黑" font-weight="bold" font-style="normal" text-decoration="none" family="微软雅黑" text-anchor="middle" size="13">Writer</text></g><g id="ProcessOnG1058" transform="matrix(1.0,0.0,0.0,1.0,10.0,29.75)"><text id="ProcessOnText1059" fill="#000000" font-size="13" x="104.0" y="13.325" font-family="微软雅黑" font-weight="bold" font-style="normal" text-decoration="none" family="微软雅黑" text-anchor="middle" size="13">- String name</text><text id="ProcessOnText1060" fill="#000000" font-size="13" x="104.0" y="29.575" font-family="微软雅黑" font-weight="bold" font-style="normal" text-decoration="none" family="微软雅黑" text-anchor="middle" size="13">- String latestNovel</text></g><g id="ProcessOnG1061" transform="matrix(1.0,0.0,0.0,1.0,10.0,68.875)"><text id="ProcessOnText1062" fill="#000000" font-size="13" x="104.0" y="13.325" font-family="微软雅黑" font-weight="bold" font-style="normal" text-decoration="none" family="微软雅黑" text-anchor="middle" size="13">+ publishNovel(String novel)</text></g></g><g id="ProcessOnG1063" transform="matrix(1.0,0.0,0.0,1.0,874.5999908447266,264.5999984741211)" opacity="1.0"><path id="ProcessOnPath1064" d="M0.0 4.0Q0.0 0.0 4.0 0.0L317.0 0.0Q321.0 0.0 321.0 4.0L321.0 238.0Q321.0 242.0 317.0 242.0L4.0 242.0Q0.0 242.0 0.0 238.0Z" stroke="#323232" stroke-width="2.0" stroke-dasharray="none" opacity="1.0" fill="#ffffff"/><path id="ProcessOnPath1065" d="M0.0 30.0L321.0 30.0M0.0 60.0L321.0 60.0" stroke="#323232" stroke-width="2.0" stroke-dasharray="none" opacity="1.0" fill="none"/><path id="ProcessOnPath1066" d="M0.0 0.0L321.0 0.0L321.0 242.0L0.0 242.0Z" stroke="none" stroke-width="0.0" stroke-dasharray="none" opacity="1.0" fill="none"/><g id="ProcessOnG1067" transform="matrix(1.0,0.0,0.0,1.0,10.0,6.875)"><text id="ProcessOnText1068" fill="#000000" font-size="13" x="149.5" y="13.325" font-family="微软雅黑" font-weight="bold" font-style="normal" text-decoration="none" family="微软雅黑" text-anchor="middle" size="13">WriterManager</text></g><g id="ProcessOnG1069" transform="matrix(1.0,0.0,0.0,1.0,10.0,36.875)"><text id="ProcessOnText1070" fill="#000000" font-size="13" x="149.5" y="13.325" font-family="微软雅黑" font-weight="bold" font-style="normal" text-decoration="none" family="微软雅黑" text-anchor="middle" size="13">- Map&lt;String, Writer&gt; writerMap</text></g><g id="ProcessOnG1071" transform="matrix(1.0,0.0,0.0,1.0,10.0,59.625)"><text id="ProcessOnText1072" fill="#000000" font-size="13" x="149.5" y="13.325" font-family="微软雅黑" font-weight="bold" font-style="normal" text-decoration="none" family="微软雅黑" text-anchor="middle" size="13">+ addWriter(Writer writer)</text><text id="ProcessOnText1073" fill="#000000" font-size="13" x="149.5" y="29.575" font-family="微软雅黑" font-weight="bold" font-style="normal" text-decoration="none" family="微软雅黑" text-anchor="middle" size="13">+ getWriter(String writerName)</text><text id="ProcessOnText1074" fill="#000000" font-size="13" x="149.5" y="45.825" font-family="微软雅黑" font-weight="bold" font-style="normal" text-decoration="none" family="微软雅黑" text-anchor="middle" size="13">+ static WriterManager getInstance()// 单例模式</text></g></g><g id="ProcessOnG1075"><path id="ProcessOnPath1076" d="M662.5999908447266 314.5999984741211L662.5999908447266 279.0999984741211L680.0999908447266 279.0999984741211L680.0999908447266 258.83606645162087" stroke="#323232" stroke-width="2.0" stroke-dasharray="none" fill="none" marker-end="url(#ProcessOnMarker1077)"/></g><g id="ProcessOnG1079"><path id="ProcessOnPath1080" d="M777.5999908447266 360.5999984741211L822.0999908447266 360.5999984741211L822.0999908447266 360.5999984741211L866.5999908447266 360.5999984741211" stroke="#323232" stroke-width="2.0" stroke-dasharray="10.0 4.0" fill="none" marker-start="url(#ProcessOnMarker1081)"/><g id="ProcessOnG1083" transform="matrix(1.0,0.0,0.0,1.0,822.0999908447266,352.4749984741211)"><path id="ProcessOnPath1084" d="M0 0H22.0V16.25H0Z" fill="#fff" transform="matrix(1.0,0.0,0.0,1.0,-11.0,0.0)"/><text id="ProcessOnText1085" fill="#000000" font-size="13" x="0.0" y="13.325" font-family="微软雅黑" font-weight="normal" font-style="normal" text-decoration="none" family="微软雅黑" text-anchor="middle" size="13">N:1</text></g></g><g id="ProcessOnG1086"><path id="ProcessOnPath1087" d="M229.59999084472656 349.5999984741211L229.59999084472656 478.6000003814697L874.5999908447266 478.6000003814697" stroke="#323232" stroke-width="2.0" stroke-dasharray="10.0 4.0" fill="none" marker-end="url(#ProcessOnMarker1088)"/></g><g id="ProcessOnG1090"><path id="ProcessOnPath1091" d="M312.59999084472656 118.5999984741211L389.09999084472656 118.5999984741211L389.09999084472656 118.5999984741211L465.59999084472656 118.5999984741211" stroke="#323232" stroke-width="2.0" stroke-dasharray="10.0 4.0" fill="none" marker-end="url(#ProcessOnMarker1092)"/><g id="ProcessOnG1094" transform="matrix(1.0,0.0,0.0,1.0,389.09999084472656,110.4749984741211)"><path id="ProcessOnPath1095" d="M0 0H22.0V16.25H0Z" fill="#fff" transform="matrix(1.0,0.0,0.0,1.0,-11.0,0.0)"/><text id="ProcessOnText1096" fill="#000000" font-size="13" x="0.0" y="13.325" font-family="微软雅黑" font-weight="normal" font-style="normal" text-decoration="none" family="微软雅黑" text-anchor="middle" size="13">N:1</text></g></g></g></g></svg>